# xmcd CD database file
#
# Track frame offsets:
#	150
#	16093
#	31860
#	52996
#	67013
#	80924
#	98132
#	111279
#	126725
#	139168
#	154675
#	168794
#	184779
#	202329
#	217300
#
# Disc length: 3143 seconds
#
# Revision: 4
# Processed by: cddbd v1.5.2PL0 Copyright (c) Steve Scherf et al.
# Submitted via: CDex 1.70beta2
#
DISCID=df0c450f
DTITLE=YUI - MY SHORT STORIES
DYEAR=2008
DGENRE=J-Pop
TTITLE0=I'll be
TTITLE1=HELP
TTITLE2=Last Train
TTITLE3=Winter Hot Music
TTITLE4=Jam
TTITLE5=Skyline
TTITLE6=Free Bird
TTITLE7=I wanna be...
TTITLE8=Oh My God
TTITLE9=Cloudy
TTITLE10=Driving today
TTITLE11=Understand
TTITLE12=crossroad
TTITLE13=It's happy line
TTITLE14=Why me
EXTD=YEAR: 2008
EXTT0=
EXTT1=
EXTT2=
EXTT3=
EXTT4=
EXTT5=
EXTT6=
EXTT7=
EXTT8=
EXTT9=
EXTT10=
EXTT11=
EXTT12=
EXTT13=
EXTT14=
PLAYORDER=
